HIERARCHY
ROOT hip
{
	OFFSET 0.000000 0.000000 0.000000 
	CHANNELS 6 Xposition Yposition Zposition Xrotation Zrotation Yrotation
	JOINT abdomen
	{
		OFFSET 0.000000 3.402643 0.000000 
		CHANNELS 3 Xrotation Zrotation Yrotation
		JOINT chest
		{
			OFFSET 0.000000 8.438565 -0.680529 
			CHANNELS 3 Xrotation Zrotation Yrotation
			JOINT neck
			{
				OFFSET 0.000000 10.207942 -0.272212 
				CHANNELS 3 Xrotation Zrotation Yrotation
				JOINT head
				{
					OFFSET 0.000000 3.130431 0.000000 
					CHANNELS 3 Xrotation Zrotation Yrotation
					End Site
					{
						OFFSET 0.000000 3.130435 0.000000 
					}
				}
			}
			JOINT lCollar
			{
				OFFSET 3.470700 6.669187 -0.816635 
				CHANNELS 3 Yrotation Zrotation Xrotation
				JOINT lShldr
				{
					OFFSET 3.198488 0.000000 0.000000 
					CHANNELS 3 Zrotation Yrotation Xrotation
					JOINT lForeArm
					{
						OFFSET 10.139888 0.000000 0.000000 
						CHANNELS 3 Yrotation Zrotation Xrotation
						JOINT lHand
						{
							OFFSET 8.370511 0.000000 0.000000 
							CHANNELS 3 Zrotation Yrotation Xrotation
							End Site
							{
								OFFSET 4.083176 0.000000 0.000000 
							}
						}
					}
				}
			}
			JOINT rCollar
			{
				OFFSET -3.470700 6.669187 -0.816635 
				CHANNELS 3 Yrotation Zrotation Xrotation
				JOINT rShldr
				{
					OFFSET -3.198488 0.000000 0.000000 
					CHANNELS 3 Zrotation Yrotation Xrotation
					JOINT rForeArm
					{
						OFFSET -10.139888 0.000000 0.000000 
						CHANNELS 3 Yrotation Zrotation Xrotation
						JOINT rHand
						{
							OFFSET -8.370511 0.000000 0.000000 
							CHANNELS 3 Zrotation Yrotation Xrotation
							End Site
							{
								OFFSET -4.083176 0.000000 0.000000 
							}
						}
					}
				}
			}
		}
	}
	JOINT lThigh
	{
		OFFSET 5.308129 -1.633274 1.361059 
		CHANNELS 3 Xrotation Zrotation Yrotation
		JOINT lShin
		{
			OFFSET -2.041588 -20.007561 0.000000 
			CHANNELS 3 Xrotation Zrotation Yrotation
			JOINT lFoot
			{
				OFFSET 0.000000 -19.190928 -1.224953 
				CHANNELS 3 Xrotation Yrotation Zrotation
				End Site
				{
					OFFSET 0.000000 -2.449906 4.627600 
				}
			}
		}
	}
	JOINT rThigh
	{
		OFFSET -5.308129 -1.633274 1.361059 
		CHANNELS 3 Xrotation Zrotation Yrotation
		JOINT rShin
		{
			OFFSET 2.041588 -20.007561 0.000000 
			CHANNELS 3 Xrotation Zrotation Yrotation
			JOINT rFoot
			{
				OFFSET 0.000000 -19.190928 -1.224953 
				CHANNELS 3 Xrotation Yrotation Zrotation
				End Site
				{
					OFFSET 0.000000 -2.449906 4.627600 
				}
			}
		}
	}
}
MOTION
Frames: 6
Frame Time: 0.033333
-0.003463 18.248724 -0.001574 2.812500 3.857422 126.055351 37.980747 -9.735929 -7.322385 -24.072266 7.880860 0.644531 51.063168 8.107644 2.471410 -55.000004 -1.787109 3.281250 2.000000 -2.000000 0.000000 -76.923828 -10.322265 -7.197266 -95.189415 0.265220 -2.887090 35.362225 37.003742 11.681185 -2.000000 2.000000 0.000000 76.103516 1.621094 -9.228239 102.507050 -1.164005 -3.075924 -44.563366 -32.538265 27.436712 -85.834206 8.358153 8.271242 52.381207 -3.527015 -4.271780 0.547759 -11.089670 0.275622 -84.963699 -8.710537 -2.433738 47.644600 3.359199 3.754160 11.051287 4.593154 0.718381 
-0.006184 18.236343 -0.002870 2.812500 3.857422 126.055351 37.961147 -9.824539 -7.169737 -23.896484 7.880860 0.684933 51.063168 8.107644 2.471410 -55.341801 -1.582031 3.105469 2.000000 -2.000000 0.000000 -76.923828 -10.322265 -7.197266 -95.189415 0.265220 -2.887090 35.173912 37.006981 11.669068 -2.000000 2.000000 0.000000 75.927734 1.650391 -9.032921 102.331551 -1.153692 -3.085106 -44.562443 -32.714226 27.538521 -85.834206 8.358151 8.271242 52.604176 -3.683378 -4.219054 0.473792 -11.093059 0.266426 -84.987419 -8.711119 -2.247797 47.643394 3.375473 3.770617 11.234106 4.557113 0.720969 
-0.009280 18.210419 -0.004305 2.812500 4.033203 126.065140 37.969261 -9.962678 -7.275353 -23.906252 7.705078 0.654297 51.063168 8.107644 2.471410 -55.683598 -1.367187 3.105469 2.000000 -2.000000 0.000000 -76.923828 -10.351563 -7.197264 -95.189415 0.265220 -2.887090 35.192295 36.841446 11.606196 -2.000000 2.000000 0.000000 75.751953 1.669922 -9.013388 102.331551 -1.153692 -3.085106 -44.315056 -32.879848 27.424606 -85.834206 8.358153 8.271239 52.557461 -3.517321 -4.291642 0.496995 -11.143745 0.019117 -84.987419 -8.711116 -2.247797 47.643394 3.375473 3.770616 11.394101 4.511532 0.903670 
-0.013859 18.200466 -0.006283 2.812500 4.033203 126.065140 37.969261 -9.962678 -7.275353 -23.906252 7.705078 0.654297 51.063168 8.107644 2.471410 -56.191410 -1.162109 2.929688 2.000000 -2.000000 0.000000 -76.884766 -10.341797 -7.392577 -95.189415 0.265220 -2.887090 34.976234 37.009933 11.653453 -2.000000 2.000000 0.000000 75.576172 1.689453 -9.335648 102.351547 -0.977641 -3.084702 -44.044933 -33.269451 27.379345 -85.834206 8.358153 8.271239 52.557461 -3.517320 -4.291642 0.496994 -11.143747 0.019117 -84.987419 -8.711115 -2.247797 47.643394 3.375473 3.770617 11.394097 4.511530 0.903670 
-0.021039 18.154760 -0.009211 2.812500 4.033203 126.065140 37.969261 -9.962678 -7.275353 -23.906250 7.529296 0.636045 51.063168 8.107644 2.471410 -56.523441 -0.947266 2.919922 2.000000 -2.000000 0.000000 -76.669922 -10.537109 -7.265625 -95.189415 0.265220 -2.887090 34.779102 37.003162 11.618320 -2.000000 2.000000 0.000000 75.400391 1.689453 -9.306351 102.351547 -0.977641 -3.084702 -43.693851 -33.743752 27.624361 -85.834206 8.358154 8.271238 52.557461 -3.517321 -4.291643 0.702975 -10.928924 0.359675 -84.987419 -8.711114 -2.247798 47.643394 3.375474 3.770617 11.394097 4.511531 0.903670 
-0.030554 18.142960 -0.013331 2.812500 4.033203 126.065140 37.969261 -9.962678 -7.275353 -23.730469 7.529296 0.664063 51.063168 8.107644 2.471410 -56.865234 -0.751953 2.734375 2.000000 -2.000000 0.000000 -76.669922 -10.361329 -7.246093 -95.189415 0.265220 -2.887090 34.695141 36.990513 11.826756 -2.000000 2.000000 0.000000 75.029297 1.904297 -9.286784 102.351540 -0.987390 -3.085266 -43.064362 -34.118698 27.572544 -85.834206 8.358153 8.271239 52.557461 -3.517321 -4.291642 0.623487 -11.107439 0.285228 -84.963699 -8.710537 -2.433739 47.644600 3.359198 3.754159 11.252269 4.584651 0.737641 
